<mxfile host="app.diagrams.net" modified="2023-12-21T07:36:48.103Z" agent="Mozilla/5.0 (X11; Linux x86_64) AppleWebKit/537.36 (KHTML, like Gecko) Chrome/120.0.0.0 Safari/537.36" etag="hjOHqoiStpq-HDuTOtNh" version="22.1.11" type="github" pages="4">
  <diagram name="Carbon pool pathway" id="w9bmsyJULUGU3eWK0ImN">
    <mxGraphModel dx="717" dy="352" grid="1" gridSize="10" guides="1" tooltips="1" connect="1" arrows="1" fold="1" page="1" pageScale="1" pageWidth="827" pageHeight="1169" math="1" shadow="0">
      <root>
        <mxCell id="0" />
        <mxCell id="1" parent="0" />
        <mxCell id="1BXOtiP-ACeCL6t7-eHm-2" value="$$C_{poly} \times F(t)$$" style="rounded=1;whiteSpace=wrap;html=1;arcSize=5;glass=0;shadow=0;" vertex="1" parent="1">
          <mxGeometry x="190" y="160" width="120" height="60" as="geometry" />
        </mxCell>
        <mxCell id="1BXOtiP-ACeCL6t7-eHm-6" value="$$C_{inter}$$" style="rounded=1;whiteSpace=wrap;html=1;arcSize=5;" vertex="1" parent="1">
          <mxGeometry x="190" y="270" width="120" height="50" as="geometry" />
        </mxCell>
        <mxCell id="1BXOtiP-ACeCL6t7-eHm-7" value="" style="endArrow=classic;html=1;rounded=0;exitX=0.5;exitY=1;exitDx=0;exitDy=0;entryX=0.5;entryY=0;entryDx=0;entryDy=0;" edge="1" parent="1" source="1BXOtiP-ACeCL6t7-eHm-2" target="1BXOtiP-ACeCL6t7-eHm-6">
          <mxGeometry width="50" height="50" relative="1" as="geometry">
            <mxPoint x="140" y="220" as="sourcePoint" />
            <mxPoint x="190" y="170" as="targetPoint" />
          </mxGeometry>
        </mxCell>
        <mxCell id="1BXOtiP-ACeCL6t7-eHm-8" value="" style="endArrow=classic;html=1;rounded=0;exitX=0.5;exitY=1;exitDx=0;exitDy=0;entryX=0.5;entryY=0;entryDx=0;entryDy=0;" edge="1" parent="1" source="1BXOtiP-ACeCL6t7-eHm-6" target="1BXOtiP-ACeCL6t7-eHm-9">
          <mxGeometry width="50" height="50" relative="1" as="geometry">
            <mxPoint x="260" y="230" as="sourcePoint" />
            <mxPoint x="250" y="330" as="targetPoint" />
          </mxGeometry>
        </mxCell>
        <mxCell id="1BXOtiP-ACeCL6t7-eHm-9" value="$$C_{mineral}$$" style="rounded=1;whiteSpace=wrap;html=1;arcSize=5;" vertex="1" parent="1">
          <mxGeometry x="190" y="370" width="120" height="50" as="geometry" />
        </mxCell>
        <mxCell id="1BXOtiP-ACeCL6t7-eHm-11" value="$$k$$" style="text;html=1;strokeColor=none;fillColor=none;align=center;verticalAlign=middle;whiteSpace=wrap;rounded=0;" vertex="1" parent="1">
          <mxGeometry x="240" y="230" width="60" height="30" as="geometry" />
        </mxCell>
        <mxCell id="1BXOtiP-ACeCL6t7-eHm-12" value="$$k_{inter}$$" style="text;html=1;strokeColor=none;fillColor=none;align=center;verticalAlign=middle;whiteSpace=wrap;rounded=0;" vertex="1" parent="1">
          <mxGeometry x="252" y="330" width="60" height="30" as="geometry" />
        </mxCell>
      </root>
    </mxGraphModel>
  </diagram>
  <diagram id="6LhWbnDel-XK7JpK8X_l" name="Bayesian model 1">
    <mxGraphModel dx="1434" dy="703" grid="1" gridSize="10" guides="1" tooltips="1" connect="1" arrows="1" fold="1" page="1" pageScale="1" pageWidth="827" pageHeight="1169" math="1" shadow="0">
      <root>
        <mxCell id="0" />
        <mxCell id="1" parent="0" />
        <mxCell id="E0DCC_EIFW5zAiYpByB4-8" value="$$u_w$$" style="rounded=0;whiteSpace=wrap;html=1;shadow=0;glass=0;strokeColor=#000000;align=center;verticalAlign=middle;fontFamily=Helvetica;fontSize=12;fontColor=default;fillColor=default;" parent="1" vertex="1">
          <mxGeometry x="280" y="350" width="50" height="50" as="geometry" />
        </mxCell>
        <mxCell id="E0DCC_EIFW5zAiYpByB4-10" value="" style="rounded=1;whiteSpace=wrap;html=1;shadow=0;glass=0;align=center;verticalAlign=middle;fontFamily=Helvetica;fontSize=12;fillColor=#bac8d3;strokeColor=#000000;" parent="1" vertex="1">
          <mxGeometry x="80" y="340" width="330" height="110" as="geometry" />
        </mxCell>
        <mxCell id="E0DCC_EIFW5zAiYpByB4-11" value="$$C_{mineral}$$" style="ellipse;whiteSpace=wrap;html=1;rounded=1;shadow=0;glass=0;strokeColor=#000000;align=center;verticalAlign=middle;fontFamily=Helvetica;fontSize=12;fontColor=default;fillColor=#ededed;" parent="1" vertex="1">
          <mxGeometry x="185" y="355" width="120" height="80" as="geometry" />
        </mxCell>
        <mxCell id="E0DCC_EIFW5zAiYpByB4-13" value="" style="endArrow=block;html=1;rounded=1;fontFamily=Helvetica;fontSize=12;fontColor=default;exitX=1;exitY=1;exitDx=0;exitDy=0;endFill=1;strokeColor=#000000;" parent="1" source="E0DCC_EIFW5zAiYpByB4-6" edge="1">
          <mxGeometry width="50" height="50" relative="1" as="geometry">
            <mxPoint x="85" y="290" as="sourcePoint" />
            <mxPoint x="140" y="220" as="targetPoint" />
            <Array as="points">
              <mxPoint x="140" y="200" />
            </Array>
          </mxGeometry>
        </mxCell>
        <mxCell id="E0DCC_EIFW5zAiYpByB4-16" value="" style="endArrow=block;html=1;rounded=1;fontFamily=Helvetica;fontSize=12;fontColor=default;exitX=0;exitY=1;exitDx=0;exitDy=0;entryX=0.598;entryY=-0.003;entryDx=0;entryDy=0;endFill=1;entryPerimeter=0;strokeColor=#000000;" parent="1" source="E0DCC_EIFW5zAiYpByB4-5" target="E0DCC_EIFW5zAiYpByB4-12" edge="1">
          <mxGeometry width="50" height="50" relative="1" as="geometry">
            <mxPoint x="133" y="193" as="sourcePoint" />
            <mxPoint x="170" y="230" as="targetPoint" />
            <Array as="points">
              <mxPoint x="150" y="200" />
            </Array>
          </mxGeometry>
        </mxCell>
        <mxCell id="E0DCC_EIFW5zAiYpByB4-17" value="" style="endArrow=block;html=1;rounded=1;fontFamily=Helvetica;fontSize=12;fontColor=default;exitX=0.5;exitY=1;exitDx=0;exitDy=0;entryX=0;entryY=0.5;entryDx=0;entryDy=0;endFill=1;strokeColor=#000000;" parent="1" source="E0DCC_EIFW5zAiYpByB4-6" target="E0DCC_EIFW5zAiYpByB4-11" edge="1">
          <mxGeometry width="50" height="50" relative="1" as="geometry">
            <mxPoint x="133" y="193" as="sourcePoint" />
            <mxPoint x="105" y="330" as="targetPoint" />
            <Array as="points">
              <mxPoint x="105" y="395" />
            </Array>
          </mxGeometry>
        </mxCell>
        <mxCell id="E0DCC_EIFW5zAiYpByB4-18" value="" style="endArrow=block;html=1;rounded=1;fontFamily=Helvetica;fontSize=12;fontColor=default;endFill=1;strokeColor=#000000;" parent="1" edge="1">
          <mxGeometry width="50" height="50" relative="1" as="geometry">
            <mxPoint x="144" y="270" as="sourcePoint" />
            <mxPoint x="199" y="369" as="targetPoint" />
            <Array as="points">
              <mxPoint x="144" y="319" />
            </Array>
          </mxGeometry>
        </mxCell>
        <mxCell id="E0DCC_EIFW5zAiYpByB4-19" value="" style="endArrow=block;html=1;rounded=1;fontFamily=Helvetica;fontSize=12;fontColor=default;entryX=0.325;entryY=0.052;entryDx=0;entryDy=0;entryPerimeter=0;endFill=1;strokeColor=#000000;" parent="1" edge="1">
          <mxGeometry width="50" height="50" relative="1" as="geometry">
            <mxPoint x="204" y="270" as="sourcePoint" />
            <mxPoint x="223.00000000000006" y="358.15999999999997" as="targetPoint" />
            <Array as="points">
              <mxPoint x="204" y="319" />
            </Array>
          </mxGeometry>
        </mxCell>
        <mxCell id="E0DCC_EIFW5zAiYpByB4-20" value="" style="endArrow=block;html=1;rounded=1;fontFamily=Helvetica;fontSize=12;fontColor=default;exitX=0.5;exitY=1;exitDx=0;exitDy=0;endFill=1;strokeColor=#000000;" parent="1" source="E0DCC_EIFW5zAiYpByB4-4" target="E0DCC_EIFW5zAiYpByB4-11" edge="1">
          <mxGeometry width="50" height="50" relative="1" as="geometry">
            <mxPoint x="215" y="280" as="sourcePoint" />
            <mxPoint x="231" y="369" as="targetPoint" />
            <Array as="points">
              <mxPoint x="265" y="320" />
            </Array>
          </mxGeometry>
        </mxCell>
        <mxCell id="E0DCC_EIFW5zAiYpByB4-21" value="" style="endArrow=block;html=1;rounded=1;fontFamily=Helvetica;fontSize=12;fontColor=default;exitX=0.5;exitY=1;exitDx=0;exitDy=0;entryX=1;entryY=0;entryDx=0;entryDy=0;endFill=1;strokeColor=#000000;" parent="1" source="E0DCC_EIFW5zAiYpByB4-2" target="E0DCC_EIFW5zAiYpByB4-11" edge="1">
          <mxGeometry width="50" height="50" relative="1" as="geometry">
            <mxPoint x="275" y="280" as="sourcePoint" />
            <mxPoint x="266" y="366" as="targetPoint" />
            <Array as="points">
              <mxPoint x="325" y="320" />
            </Array>
          </mxGeometry>
        </mxCell>
        <mxCell id="E0DCC_EIFW5zAiYpByB4-22" value="" style="endArrow=block;html=1;rounded=1;fontFamily=Helvetica;fontSize=12;fontColor=default;exitX=0.5;exitY=1;exitDx=0;exitDy=0;entryX=1;entryY=0.5;entryDx=0;entryDy=0;endFill=1;strokeColor=#000000;" parent="1" source="E0DCC_EIFW5zAiYpByB4-3" target="E0DCC_EIFW5zAiYpByB4-11" edge="1">
          <mxGeometry width="50" height="50" relative="1" as="geometry">
            <mxPoint x="335" y="280" as="sourcePoint" />
            <mxPoint x="290" y="372" as="targetPoint" />
            <Array as="points">
              <mxPoint x="385" y="395" />
            </Array>
          </mxGeometry>
        </mxCell>
        <mxCell id="E0DCC_EIFW5zAiYpByB4-23" value="T" style="text;html=1;strokeColor=none;fillColor=none;align=center;verticalAlign=middle;whiteSpace=wrap;rounded=0;fontSize=12;fontFamily=Helvetica;fontColor=default;" parent="1" vertex="1">
          <mxGeometry x="370" y="420" width="30" height="30" as="geometry" />
        </mxCell>
        <mxCell id="E0DCC_EIFW5zAiYpByB4-1" value="$$k$$" style="ellipse;whiteSpace=wrap;html=1;aspect=fixed;rounded=1;shadow=0;glass=0;align=center;verticalAlign=middle;fontFamily=Helvetica;fontSize=12;fillColor=#d5e8d4;strokeColor=#000000;" parent="1" vertex="1">
          <mxGeometry x="180" y="220" width="50" height="50" as="geometry" />
        </mxCell>
        <mxCell id="E0DCC_EIFW5zAiYpByB4-2" value="$$\log m$$" style="ellipse;whiteSpace=wrap;html=1;aspect=fixed;rounded=1;shadow=0;glass=0;align=center;verticalAlign=middle;fontFamily=Helvetica;fontSize=12;fillColor=#d5e8d4;strokeColor=#000000;" parent="1" vertex="1">
          <mxGeometry x="300" y="220" width="50" height="50" as="geometry" />
        </mxCell>
        <mxCell id="E0DCC_EIFW5zAiYpByB4-3" value="$$c_{inter}$$" style="ellipse;whiteSpace=wrap;html=1;aspect=fixed;rounded=1;shadow=0;glass=0;align=center;verticalAlign=middle;fontFamily=Helvetica;fontSize=12;fillColor=#d5e8d4;strokeColor=#000000;" parent="1" vertex="1">
          <mxGeometry x="360" y="220" width="50" height="50" as="geometry" />
        </mxCell>
        <mxCell id="E0DCC_EIFW5zAiYpByB4-4" value="$$k_{inter}$$" style="ellipse;whiteSpace=wrap;html=1;aspect=fixed;rounded=1;shadow=0;glass=0;align=center;verticalAlign=middle;fontFamily=Helvetica;fontSize=12;fillColor=#d5e8d4;strokeColor=#000000;" parent="1" vertex="1">
          <mxGeometry x="240" y="220" width="50" height="50" as="geometry" />
        </mxCell>
        <mxCell id="E0DCC_EIFW5zAiYpByB4-5" value="$$s$$" style="ellipse;whiteSpace=wrap;html=1;aspect=fixed;rounded=1;shadow=0;glass=0;align=center;verticalAlign=middle;fontFamily=Helvetica;fontSize=12;fillColor=#d5e8d4;strokeColor=#000000;" parent="1" vertex="1">
          <mxGeometry x="160" y="140" width="50" height="50" as="geometry" />
        </mxCell>
        <mxCell id="E0DCC_EIFW5zAiYpByB4-6" value="$$u_n$$" style="ellipse;whiteSpace=wrap;html=1;aspect=fixed;rounded=1;shadow=0;glass=0;align=center;verticalAlign=middle;fontFamily=Helvetica;fontSize=12;fillColor=#d5e8d4;strokeColor=#000000;" parent="1" vertex="1">
          <mxGeometry x="80" y="140" width="50" height="50" as="geometry" />
        </mxCell>
        <mxCell id="E0DCC_EIFW5zAiYpByB4-12" value="$$u_w$$" style="rounded=0;whiteSpace=wrap;html=1;shadow=0;glass=0;align=center;verticalAlign=middle;fontFamily=Helvetica;fontSize=12;fillColor=#fff2cc;strokeColor=#000000;" parent="1" vertex="1">
          <mxGeometry x="120" y="220" width="50" height="50" as="geometry" />
        </mxCell>
      </root>
    </mxGraphModel>
  </diagram>
  <diagram name="Bayesian model 2" id="7n9U5RIF3Qn2yNHu1IkQ">
    <mxGraphModel dx="1434" dy="703" grid="1" gridSize="10" guides="1" tooltips="1" connect="1" arrows="1" fold="1" page="1" pageScale="1" pageWidth="827" pageHeight="1169" math="1" shadow="0">
      <root>
        <mxCell id="QyrYadbDAyCNFbzv-6Sb-0" />
        <mxCell id="QyrYadbDAyCNFbzv-6Sb-1" parent="QyrYadbDAyCNFbzv-6Sb-0" />
        <mxCell id="QyrYadbDAyCNFbzv-6Sb-2" value="$$k$$" style="ellipse;whiteSpace=wrap;html=1;aspect=fixed;rounded=1;shadow=0;glass=0;strokeColor=#000000;align=center;verticalAlign=middle;fontFamily=Helvetica;fontSize=12;fillColor=#d5e8d4;" parent="QyrYadbDAyCNFbzv-6Sb-1" vertex="1">
          <mxGeometry x="440" y="220" width="50" height="50" as="geometry" />
        </mxCell>
        <mxCell id="QyrYadbDAyCNFbzv-6Sb-3" value="$$\log m$$" style="ellipse;whiteSpace=wrap;html=1;aspect=fixed;rounded=1;shadow=0;glass=0;strokeColor=#000000;align=center;verticalAlign=middle;fontFamily=Helvetica;fontSize=12;fillColor=#d5e8d4;" parent="QyrYadbDAyCNFbzv-6Sb-1" vertex="1">
          <mxGeometry x="560" y="220" width="50" height="50" as="geometry" />
        </mxCell>
        <mxCell id="QyrYadbDAyCNFbzv-6Sb-4" value="$$c_{inter}$$" style="ellipse;whiteSpace=wrap;html=1;aspect=fixed;rounded=1;shadow=0;glass=0;strokeColor=#000000;align=center;verticalAlign=middle;fontFamily=Helvetica;fontSize=12;fillColor=#d5e8d4;" parent="QyrYadbDAyCNFbzv-6Sb-1" vertex="1">
          <mxGeometry x="620" y="220" width="50" height="50" as="geometry" />
        </mxCell>
        <mxCell id="QyrYadbDAyCNFbzv-6Sb-5" value="$$k_{inter}$$" style="ellipse;whiteSpace=wrap;html=1;aspect=fixed;rounded=1;shadow=0;glass=0;strokeColor=#000000;align=center;verticalAlign=middle;fontFamily=Helvetica;fontSize=12;fillColor=#d5e8d4;" parent="QyrYadbDAyCNFbzv-6Sb-1" vertex="1">
          <mxGeometry x="500" y="220" width="50" height="50" as="geometry" />
        </mxCell>
        <mxCell id="QyrYadbDAyCNFbzv-6Sb-8" value="$$u_w$$" style="rounded=0;whiteSpace=wrap;html=1;shadow=0;glass=0;strokeColor=#000000;align=center;verticalAlign=middle;fontFamily=Helvetica;fontSize=12;fontColor=default;fillColor=default;" parent="QyrYadbDAyCNFbzv-6Sb-1" vertex="1">
          <mxGeometry x="540" y="350" width="50" height="50" as="geometry" />
        </mxCell>
        <mxCell id="QyrYadbDAyCNFbzv-6Sb-9" value="" style="rounded=1;whiteSpace=wrap;html=1;shadow=0;glass=0;strokeColor=#000000;align=center;verticalAlign=middle;fontFamily=Helvetica;fontSize=12;fillColor=#bac8d3;" parent="QyrYadbDAyCNFbzv-6Sb-1" vertex="1">
          <mxGeometry x="340" y="340" width="330" height="110" as="geometry" />
        </mxCell>
        <mxCell id="QyrYadbDAyCNFbzv-6Sb-10" value="$$C_{mineral}$$" style="ellipse;whiteSpace=wrap;html=1;rounded=1;shadow=0;glass=0;strokeColor=#000000;align=center;verticalAlign=middle;fontFamily=Helvetica;fontSize=12;fontColor=default;fillColor=#ededed;" parent="QyrYadbDAyCNFbzv-6Sb-1" vertex="1">
          <mxGeometry x="445" y="355" width="120" height="80" as="geometry" />
        </mxCell>
        <mxCell id="QyrYadbDAyCNFbzv-6Sb-14" value="" style="endArrow=block;html=1;rounded=1;fontFamily=Helvetica;fontSize=12;fontColor=default;entryX=0;entryY=0.5;entryDx=0;entryDy=0;endFill=1;exitX=0.5;exitY=1;exitDx=0;exitDy=0;strokeColor=#000000;" parent="QyrYadbDAyCNFbzv-6Sb-1" source="wwDEE883zu8LpgnxQC---4" target="QyrYadbDAyCNFbzv-6Sb-10" edge="1">
          <mxGeometry width="50" height="50" relative="1" as="geometry">
            <mxPoint x="365" y="220" as="sourcePoint" />
            <mxPoint x="365" y="330" as="targetPoint" />
            <Array as="points">
              <mxPoint x="365" y="395" />
            </Array>
          </mxGeometry>
        </mxCell>
        <mxCell id="QyrYadbDAyCNFbzv-6Sb-15" value="" style="endArrow=block;html=1;rounded=1;fontFamily=Helvetica;fontSize=12;fontColor=default;exitX=0.5;exitY=1;exitDx=0;exitDy=0;endFill=1;strokeColor=#000000;" parent="QyrYadbDAyCNFbzv-6Sb-1" edge="1">
          <mxGeometry width="50" height="50" relative="1" as="geometry">
            <mxPoint x="404" y="269" as="sourcePoint" />
            <mxPoint x="459" y="369" as="targetPoint" />
            <Array as="points">
              <mxPoint x="404" y="319" />
            </Array>
          </mxGeometry>
        </mxCell>
        <mxCell id="QyrYadbDAyCNFbzv-6Sb-11" value="$$u_w$$" style="rounded=0;whiteSpace=wrap;html=1;shadow=0;glass=0;strokeColor=#000000;align=center;verticalAlign=middle;fontFamily=Helvetica;fontSize=12;fillColor=#fff2cc;" parent="QyrYadbDAyCNFbzv-6Sb-1" vertex="1">
          <mxGeometry x="380" y="220" width="50" height="50" as="geometry" />
        </mxCell>
        <mxCell id="QyrYadbDAyCNFbzv-6Sb-16" value="" style="endArrow=block;html=1;rounded=1;fontFamily=Helvetica;fontSize=12;fontColor=default;exitX=0.5;exitY=1;exitDx=0;exitDy=0;entryX=0.325;entryY=0.052;entryDx=0;entryDy=0;entryPerimeter=0;endFill=1;strokeColor=#000000;" parent="QyrYadbDAyCNFbzv-6Sb-1" source="QyrYadbDAyCNFbzv-6Sb-2" edge="1">
          <mxGeometry width="50" height="50" relative="1" as="geometry">
            <mxPoint x="465" y="267.84" as="sourcePoint" />
            <mxPoint x="484" y="357" as="targetPoint" />
            <Array as="points">
              <mxPoint x="465" y="317.84" />
            </Array>
          </mxGeometry>
        </mxCell>
        <mxCell id="QyrYadbDAyCNFbzv-6Sb-17" value="" style="endArrow=block;html=1;rounded=1;fontFamily=Helvetica;fontSize=12;fontColor=default;exitX=0.5;exitY=1;exitDx=0;exitDy=0;endFill=1;strokeColor=#000000;" parent="QyrYadbDAyCNFbzv-6Sb-1" source="QyrYadbDAyCNFbzv-6Sb-5" edge="1">
          <mxGeometry width="50" height="50" relative="1" as="geometry">
            <mxPoint x="525" y="269.38" as="sourcePoint" />
            <mxPoint x="515.5041827917685" y="354.9977584077106" as="targetPoint" />
            <Array as="points">
              <mxPoint x="525" y="319.38" />
            </Array>
          </mxGeometry>
        </mxCell>
        <mxCell id="QyrYadbDAyCNFbzv-6Sb-18" value="" style="endArrow=block;html=1;rounded=1;fontFamily=Helvetica;fontSize=12;fontColor=default;exitX=0.5;exitY=1;exitDx=0;exitDy=0;entryX=1;entryY=0;entryDx=0;entryDy=0;endFill=1;strokeColor=#000000;" parent="QyrYadbDAyCNFbzv-6Sb-1" source="QyrYadbDAyCNFbzv-6Sb-3" target="QyrYadbDAyCNFbzv-6Sb-10" edge="1">
          <mxGeometry width="50" height="50" relative="1" as="geometry">
            <mxPoint x="535" y="280" as="sourcePoint" />
            <mxPoint x="526" y="366" as="targetPoint" />
            <Array as="points">
              <mxPoint x="585" y="320" />
            </Array>
          </mxGeometry>
        </mxCell>
        <mxCell id="QyrYadbDAyCNFbzv-6Sb-19" value="" style="endArrow=block;html=1;rounded=1;fontFamily=Helvetica;fontSize=12;fontColor=default;exitX=0.5;exitY=1;exitDx=0;exitDy=0;entryX=1;entryY=0.5;entryDx=0;entryDy=0;endFill=1;strokeColor=#000000;" parent="QyrYadbDAyCNFbzv-6Sb-1" source="QyrYadbDAyCNFbzv-6Sb-4" target="QyrYadbDAyCNFbzv-6Sb-10" edge="1">
          <mxGeometry width="50" height="50" relative="1" as="geometry">
            <mxPoint x="595" y="280" as="sourcePoint" />
            <mxPoint x="550" y="372" as="targetPoint" />
            <Array as="points">
              <mxPoint x="645" y="395" />
            </Array>
          </mxGeometry>
        </mxCell>
        <mxCell id="QyrYadbDAyCNFbzv-6Sb-20" value="T&lt;sub&gt;1&lt;/sub&gt;" style="text;html=1;strokeColor=none;fillColor=none;align=center;verticalAlign=middle;whiteSpace=wrap;rounded=0;fontSize=12;fontFamily=Helvetica;fontColor=default;" parent="QyrYadbDAyCNFbzv-6Sb-1" vertex="1">
          <mxGeometry x="630" y="420" width="30" height="30" as="geometry" />
        </mxCell>
        <mxCell id="wwDEE883zu8LpgnxQC---5" value="" style="rounded=1;whiteSpace=wrap;html=1;shadow=0;glass=0;align=center;verticalAlign=middle;fontFamily=Helvetica;fontSize=12;fillColor=#bac8d3;strokeColor=#000000;" parent="QyrYadbDAyCNFbzv-6Sb-1" vertex="1">
          <mxGeometry x="110" y="340" width="220" height="110" as="geometry" />
        </mxCell>
        <mxCell id="wwDEE883zu8LpgnxQC---6" value="$$M_w$$" style="ellipse;whiteSpace=wrap;html=1;rounded=1;shadow=0;glass=0;strokeColor=#000000;align=center;verticalAlign=middle;fontFamily=Helvetica;fontSize=12;fontColor=default;fillColor=#ededed;" parent="QyrYadbDAyCNFbzv-6Sb-1" vertex="1">
          <mxGeometry x="160" y="355" width="120" height="80" as="geometry" />
        </mxCell>
        <mxCell id="wwDEE883zu8LpgnxQC---7" value="T&lt;sub&gt;2&lt;/sub&gt;" style="text;html=1;strokeColor=none;fillColor=none;align=center;verticalAlign=middle;whiteSpace=wrap;rounded=0;fontSize=12;fontFamily=Helvetica;fontColor=default;" parent="QyrYadbDAyCNFbzv-6Sb-1" vertex="1">
          <mxGeometry x="290" y="420" width="30" height="30" as="geometry" />
        </mxCell>
        <mxCell id="I2vGS5JBCJdYSaKRd8A3-2" value="" style="endArrow=block;html=1;rounded=1;fontFamily=Helvetica;fontSize=12;fontColor=default;endFill=1;exitX=1;exitY=0.5;exitDx=0;exitDy=0;entryX=0;entryY=0.5;entryDx=0;entryDy=0;strokeColor=#000000;" parent="QyrYadbDAyCNFbzv-6Sb-1" source="QyrYadbDAyCNFbzv-6Sb-7" target="wwDEE883zu8LpgnxQC---4" edge="1">
          <mxGeometry width="50" height="50" relative="1" as="geometry">
            <mxPoint x="524.66" y="10" as="sourcePoint" />
            <mxPoint x="524.66" y="230" as="targetPoint" />
            <Array as="points" />
          </mxGeometry>
        </mxCell>
        <mxCell id="I2vGS5JBCJdYSaKRd8A3-4" value="" style="endArrow=block;html=1;rounded=1;fontFamily=Helvetica;fontSize=12;fontColor=default;endFill=1;exitX=1;exitY=0.5;exitDx=0;exitDy=0;entryX=0;entryY=0.5;entryDx=0;entryDy=0;strokeColor=#000000;dashed=1;shadow=0;" parent="QyrYadbDAyCNFbzv-6Sb-1" source="I2vGS5JBCJdYSaKRd8A3-0" target="QyrYadbDAyCNFbzv-6Sb-11" edge="1">
          <mxGeometry width="50" height="50" relative="1" as="geometry">
            <mxPoint x="260" y="269.31" as="sourcePoint" />
            <mxPoint x="360" y="269.31" as="targetPoint" />
            <Array as="points" />
          </mxGeometry>
        </mxCell>
        <mxCell id="I2vGS5JBCJdYSaKRd8A3-5" value="" style="endArrow=block;html=1;rounded=1;fontFamily=Helvetica;fontSize=12;fontColor=default;endFill=1;exitX=1;exitY=0;exitDx=0;exitDy=0;entryX=-0.004;entryY=0.803;entryDx=0;entryDy=0;entryPerimeter=0;strokeColor=#000000;" parent="QyrYadbDAyCNFbzv-6Sb-1" source="I2vGS5JBCJdYSaKRd8A3-1" target="wwDEE883zu8LpgnxQC---4" edge="1">
          <mxGeometry width="50" height="50" relative="1" as="geometry">
            <mxPoint x="250" y="255" as="sourcePoint" />
            <mxPoint x="337" y="170" as="targetPoint" />
            <Array as="points">
              <mxPoint x="310" y="180" />
              <mxPoint x="320" y="180" />
            </Array>
          </mxGeometry>
        </mxCell>
        <mxCell id="I2vGS5JBCJdYSaKRd8A3-7" value="" style="endArrow=block;html=1;rounded=1;fontFamily=Helvetica;fontSize=12;fontColor=default;endFill=1;exitX=1;exitY=1;exitDx=0;exitDy=0;entryX=-0.007;entryY=0.208;entryDx=0;entryDy=0;entryPerimeter=0;strokeColor=#000000;dashed=1;" parent="QyrYadbDAyCNFbzv-6Sb-1" source="I2vGS5JBCJdYSaKRd8A3-1" target="QyrYadbDAyCNFbzv-6Sb-11" edge="1">
          <mxGeometry width="50" height="50" relative="1" as="geometry">
            <mxPoint x="250" y="255" as="sourcePoint" />
            <mxPoint x="390" y="255" as="targetPoint" />
            <Array as="points">
              <mxPoint x="310" y="230" />
              <mxPoint x="320" y="230" />
            </Array>
          </mxGeometry>
        </mxCell>
        <mxCell id="I2vGS5JBCJdYSaKRd8A3-8" value="" style="endArrow=block;html=1;rounded=1;fontFamily=Helvetica;fontSize=12;fontColor=default;endFill=1;exitX=0;exitY=1;exitDx=0;exitDy=0;entryX=0.75;entryY=0;entryDx=0;entryDy=0;strokeColor=#000000;" parent="QyrYadbDAyCNFbzv-6Sb-1" source="QyrYadbDAyCNFbzv-6Sb-7" target="I2vGS5JBCJdYSaKRd8A3-0" edge="1">
          <mxGeometry width="50" height="50" relative="1" as="geometry">
            <mxPoint x="250" y="175" as="sourcePoint" />
            <mxPoint x="350" y="175" as="targetPoint" />
            <Array as="points">
              <mxPoint x="168" y="200" />
            </Array>
          </mxGeometry>
        </mxCell>
        <mxCell id="wJQqrYaOAy6f9Xg5GRoH-0" value="" style="endArrow=block;html=1;rounded=1;fontFamily=Helvetica;fontSize=12;fontColor=default;endFill=1;exitX=0.5;exitY=1;exitDx=0;exitDy=0;entryX=0.5;entryY=0;entryDx=0;entryDy=0;strokeColor=#000000;" parent="QyrYadbDAyCNFbzv-6Sb-1" source="QyrYadbDAyCNFbzv-6Sb-6" target="I2vGS5JBCJdYSaKRd8A3-0" edge="1">
          <mxGeometry width="50" height="50" relative="1" as="geometry">
            <mxPoint x="225" y="200" as="sourcePoint" />
            <mxPoint x="225" y="230" as="targetPoint" />
            <Array as="points" />
          </mxGeometry>
        </mxCell>
        <mxCell id="wJQqrYaOAy6f9Xg5GRoH-1" value="" style="endArrow=block;html=1;rounded=1;fontFamily=Helvetica;fontSize=12;fontColor=default;endFill=1;exitX=0.5;exitY=1;exitDx=0;exitDy=0;strokeColor=#000000;" parent="QyrYadbDAyCNFbzv-6Sb-1" source="QyrYadbDAyCNFbzv-6Sb-7" target="wwDEE883zu8LpgnxQC---6" edge="1">
          <mxGeometry width="50" height="50" relative="1" as="geometry">
            <mxPoint x="250" y="175" as="sourcePoint" />
            <mxPoint x="350" y="175" as="targetPoint" />
            <Array as="points" />
          </mxGeometry>
        </mxCell>
        <mxCell id="wJQqrYaOAy6f9Xg5GRoH-2" value="" style="endArrow=block;html=1;rounded=1;fontFamily=Helvetica;fontSize=12;fontColor=default;endFill=1;exitX=0.5;exitY=1;exitDx=0;exitDy=0;entryX=0.316;entryY=0.036;entryDx=0;entryDy=0;entryPerimeter=0;strokeColor=#000000;" parent="QyrYadbDAyCNFbzv-6Sb-1" source="I2vGS5JBCJdYSaKRd8A3-0" target="wwDEE883zu8LpgnxQC---6" edge="1">
          <mxGeometry width="50" height="50" relative="1" as="geometry">
            <mxPoint x="170" y="280" as="sourcePoint" />
            <mxPoint x="170" y="310" as="targetPoint" />
            <Array as="points">
              <mxPoint x="155" y="320" />
            </Array>
          </mxGeometry>
        </mxCell>
        <mxCell id="wJQqrYaOAy6f9Xg5GRoH-4" value="" style="endArrow=block;html=1;rounded=1;fontFamily=Helvetica;fontSize=12;fontColor=default;endFill=1;exitX=0.5;exitY=1;exitDx=0;exitDy=0;entryX=0.672;entryY=0.026;entryDx=0;entryDy=0;entryPerimeter=0;strokeColor=#000000;" parent="QyrYadbDAyCNFbzv-6Sb-1" source="wJQqrYaOAy6f9Xg5GRoH-3" target="wwDEE883zu8LpgnxQC---6" edge="1">
          <mxGeometry width="50" height="50" relative="1" as="geometry">
            <mxPoint x="165" y="280" as="sourcePoint" />
            <mxPoint x="208" y="368" as="targetPoint" />
            <Array as="points">
              <mxPoint x="285" y="320" />
            </Array>
          </mxGeometry>
        </mxCell>
        <mxCell id="QyrYadbDAyCNFbzv-6Sb-6" value="$$s$$" style="ellipse;whiteSpace=wrap;html=1;aspect=fixed;rounded=1;shadow=0;glass=0;strokeColor=#000000;align=center;verticalAlign=middle;fontFamily=Helvetica;fontSize=12;fillColor=#d5e8d4;" parent="QyrYadbDAyCNFbzv-6Sb-1" vertex="1">
          <mxGeometry x="130" y="140" width="50" height="50" as="geometry" />
        </mxCell>
        <mxCell id="QyrYadbDAyCNFbzv-6Sb-7" value="$$u_n&#39;$$" style="ellipse;whiteSpace=wrap;html=1;aspect=fixed;rounded=1;shadow=0;glass=0;strokeColor=#000000;align=center;verticalAlign=middle;fontFamily=Helvetica;fontSize=12;fillColor=#d5e8d4;" parent="QyrYadbDAyCNFbzv-6Sb-1" vertex="1">
          <mxGeometry x="194" y="140" width="50" height="50" as="geometry" />
        </mxCell>
        <mxCell id="I2vGS5JBCJdYSaKRd8A3-0" value="$$u_w&#39;$$" style="rounded=0;whiteSpace=wrap;html=1;shadow=0;glass=0;strokeColor=#000000;align=center;verticalAlign=middle;fontFamily=Helvetica;fontSize=12;fillColor=#fff2cc;" parent="QyrYadbDAyCNFbzv-6Sb-1" vertex="1">
          <mxGeometry x="130" y="220" width="50" height="50" as="geometry" />
        </mxCell>
        <mxCell id="I2vGS5JBCJdYSaKRd8A3-1" value="$$w$$" style="ellipse;whiteSpace=wrap;html=1;aspect=fixed;rounded=1;shadow=0;glass=0;strokeColor=#000000;align=center;verticalAlign=middle;fontFamily=Helvetica;fontSize=12;fillColor=#d5e8d4;" parent="QyrYadbDAyCNFbzv-6Sb-1" vertex="1">
          <mxGeometry x="260" y="180" width="50" height="50" as="geometry" />
        </mxCell>
        <mxCell id="wJQqrYaOAy6f9Xg5GRoH-3" value="$$M_{w,0}$$" style="ellipse;whiteSpace=wrap;html=1;aspect=fixed;rounded=1;shadow=0;glass=0;strokeColor=#000000;align=center;verticalAlign=middle;fontFamily=Helvetica;fontSize=12;fillColor=#d5e8d4;" parent="QyrYadbDAyCNFbzv-6Sb-1" vertex="1">
          <mxGeometry x="260" y="255" width="50" height="50" as="geometry" />
        </mxCell>
        <mxCell id="wwDEE883zu8LpgnxQC---4" value="$$u_n$$" style="rounded=0;whiteSpace=wrap;html=1;shadow=0;glass=0;strokeColor=#000000;align=center;verticalAlign=middle;fontFamily=Helvetica;fontSize=12;fillColor=#fff2cc;" parent="QyrYadbDAyCNFbzv-6Sb-1" vertex="1">
          <mxGeometry x="340" y="140" width="50" height="50" as="geometry" />
        </mxCell>
      </root>
    </mxGraphModel>
  </diagram>
  <diagram id="H65aPT7LNCq5fHRcrmLc" name="Fig. 4. Bayesian inference models">
    <mxGraphModel dx="1912" dy="937" grid="1" gridSize="10" guides="1" tooltips="1" connect="1" arrows="1" fold="1" page="1" pageScale="1" pageWidth="827" pageHeight="1169" math="1" shadow="0">
      <root>
        <mxCell id="0" />
        <mxCell id="1" parent="0" />
        <mxCell id="2Dzqu9GaTqPY8HiB3y6L-34" value="" style="shape=image;verticalLabelPosition=bottom;labelBackgroundColor=default;verticalAlign=top;aspect=fixed;imageAspect=0;image=data:image/svg+xml,PHN2ZyB4bWxucz0iaHR0cDovL3d3dy53My5vcmcvMjAwMC9zdmciIHhtbG5zOnhsaW5rPSJodHRwOi8vd3d3LnczLm9yZy8xOTk5L3hsaW5rIiB2ZXJzaW9uPSIxLjEiIHZpZXdCb3g9IjAgMCAyMi43NyAyNC4zNDM4MjgiIGhlaWdodD0iMjQuMzQzODI4cHQiIHdpZHRoPSIyMi43N3B0Ij4mI3hhOyA8bWV0YWRhdGE+JiN4YTsgICYjeGE7ICAgJiN4YTsgICAgJiN4YTsgICAgMjAyMy0xMi0yMVQxNjowNTo0NC44NDI4NDgmI3hhOyAgICBpbWFnZS9zdmcreG1sJiN4YTsgICAgJiN4YTsgICAgICYjeGE7ICAgICAgTWF0cGxvdGxpYiB2My43LjEsIGh0dHBzOi8vbWF0cGxvdGxpYi5vcmcvJiN4YTsgICAgICYjeGE7ICAgICYjeGE7ICAgJiN4YTsgICYjeGE7IDwvbWV0YWRhdGE+JiN4YTsgPGRlZnM+JiN4YTsgIDxzdHlsZSB0eXBlPSJ0ZXh0L2NzcyI+KntzdHJva2UtbGluZWpvaW46IHJvdW5kOyBzdHJva2UtbGluZWNhcDogYnV0dH08L3N0eWxlPiYjeGE7IDwvZGVmcz4mI3hhOyA8ZyBpZD0iZmlndXJlXzEiPiYjeGE7ICA8ZyBpZD0icGF0Y2hfMSI+JiN4YTsgICA8cGF0aCBzdHlsZT0iZmlsbDogI2ZmZmZmZiIgZD0iTSAwIDI0LjM0MzgyOCAmIzEwO0wgMjIuNzcgMjQuMzQzODI4ICYjMTA7TCAyMi43NyAtMCAmIzEwO0wgMCAtMCAmIzEwO3oiLz4mI3hhOyAgPC9nPiYjeGE7ICA8ZyBpZD0iYXhlc18xIj4mI3hhOyAgIDxnIGlkPSJwYXRjaF8yIj4mI3hhOyAgICA8cGF0aCBzdHlsZT0iZmlsbDogI2ZmZmZmZiIgZD0iTSA3LjIgMTYuMzI5OTE0ICYjMTA7TCAxNS41NyAxNi4zMjk5MTQgJiMxMDtMIDE1LjU3IDguMDEzOTE0ICYjMTA7TCA3LjIgOC4wMTM5MTQgJiMxMDt6Ii8+JiN4YTsgICA8L2c+JiN4YTsgICA8ZyBpZD0idGV4dF8xIj4mI3hhOyAgICAmI3hhOyAgICA8ZyB0cmFuc2Zvcm09InRyYW5zbGF0ZSg4LjQ2NjMyOCAxNC44NTUxNTYpIHNjYWxlKDAuMTA1IC0wLjEwNSkiPiYjeGE7ICAgICA8ZGVmcz4mI3hhOyAgICAgIDxwYXRoIHRyYW5zZm9ybT0ic2NhbGUoMC4wMTU2MjUpIiBkPSJNIDMzNTQgMCAmIzEwO0wgMjM4MSAwICYjMTA7USAyMjc4IDEyOCAyMjc4IDQzNSAmIzEwO1EgMTgwNSAtNTggMTIyOSAtNTggJiMxMDtRIDc3NCAtNTggNDc2IDE5OCAmIzEwO1EgMTc5IDQ1NCAxNzkgOTM0ICYjMTA7USAxNzkgMTM5NSA0MjUgMTYzOCAmIzEwO1EgNjcyIDE4ODIgMTE5NyAxOTc4ICYjMTA7TCAxNTU1IDIwNDIgJiMxMDtRIDE2MzIgMjA1NCAxNzYwIDIwNzMgJiMxMDtRIDE4ODggMjA5MyAxOTQyIDIxMDIgJiMxMDtRIDE5OTcgMjExMiAyMDc3IDIxMzcgJiMxMDtRIDIxNTcgMjE2MyAyMTg5IDIxOTggJiMxMDtRIDIyMjEgMjIzNCAyMjQ2IDIyOTQgJiMxMDtRIDIyNzIgMjM1NSAyMjcyIDI0NDUgJiMxMDtRIDIyNzIgMjc5MCAxNzU0IDI3OTAgJiMxMDtRIDE0MjEgMjc5MCAxMjg2IDI2ODggJiMxMDtRIDExNTIgMjU4NiAxMTIwIDIzMTcgJiMxMDtMIDI1NiAyMzE3ICYjMTA7USAzMzkgMzUxNCAxNzM0IDM1MTQgJiMxMDtRIDMxNDkgMzUxNCAzMTQ5IDI0NTEgJiMxMDtMIDMxNDkgNTMxICYjMTA7USAzMTQ5IDI5NCAzMzU0IDEwOSAmIzEwO0wgMzM1NCAwICYjMTA7eiYjMTA7TSAyMjcyIDE0NzggJiMxMDtMIDIyNzIgMTYzMiAmIzEwO1EgMjE1MCAxNTc0IDE4OTQgMTUyMyAmIzEwO0wgMTU4NyAxNDY2ICYjMTA7USAxMjk5IDE0MTQgMTE4NyAxMzIxICYjMTA7USAxMDc1IDEyMjkgMTA3NSAxMDM3ICYjMTA7USAxMDc1IDY2NiAxNTYyIDY2NiAmIzEwO1EgMTkwMSA2NjYgMjA4NiA4NzcgJiMxMDtRIDIyNzIgMTA4OCAyMjcyIDE0NzggJiMxMDt6IiBpZD0iVGVYR3lyZUhlcm9zLUJvbGQtNjEiLz4mI3hhOyAgICAgPC9kZWZzPiYjeGE7ICAgICA8dXNlIHhsaW5rOmhyZWY9IiNUZVhHeXJlSGVyb3MtQm9sZC02MSIvPiYjeGE7ICAgIDwvZz4mI3hhOyAgIDwvZz4mI3hhOyAgPC9nPiYjeGE7IDwvZz4mI3hhOzwvc3ZnPg==;" vertex="1" parent="1">
          <mxGeometry x="80" y="80" width="38.33" height="40" as="geometry" />
        </mxCell>
        <mxCell id="2Dzqu9GaTqPY8HiB3y6L-35" value="" style="shape=image;verticalLabelPosition=bottom;labelBackgroundColor=default;verticalAlign=top;aspect=fixed;imageAspect=0;image=data:image/svg+xml,PHN2ZyB4bWxucz0iaHR0cDovL3d3dy53My5vcmcvMjAwMC9zdmciIHhtbG5zOnhsaW5rPSJodHRwOi8vd3d3LnczLm9yZy8xOTk5L3hsaW5rIiB2ZXJzaW9uPSIxLjEiIHZpZXdCb3g9IjAgMCAyMi43NyAyNC4zNDM4MjgiIGhlaWdodD0iMjQuMzQzODI4cHQiIHdpZHRoPSIyMi43N3B0Ij4mI3hhOyA8bWV0YWRhdGE+JiN4YTsgICYjeGE7ICAgJiN4YTsgICAgJiN4YTsgICAgMjAyMy0xMi0yMVQxNjowNTo0NC44NjAwMzcmI3hhOyAgICBpbWFnZS9zdmcreG1sJiN4YTsgICAgJiN4YTsgICAgICYjeGE7ICAgICAgTWF0cGxvdGxpYiB2My43LjEsIGh0dHBzOi8vbWF0cGxvdGxpYi5vcmcvJiN4YTsgICAgICYjeGE7ICAgICYjeGE7ICAgJiN4YTsgICYjeGE7IDwvbWV0YWRhdGE+JiN4YTsgPGRlZnM+JiN4YTsgIDxzdHlsZSB0eXBlPSJ0ZXh0L2NzcyI+KntzdHJva2UtbGluZWpvaW46IHJvdW5kOyBzdHJva2UtbGluZWNhcDogYnV0dH08L3N0eWxlPiYjeGE7IDwvZGVmcz4mI3hhOyA8ZyBpZD0iZmlndXJlXzEiPiYjeGE7ICA8ZyBpZD0icGF0Y2hfMSI+JiN4YTsgICA8cGF0aCBzdHlsZT0iZmlsbDogI2ZmZmZmZiIgZD0iTSAwIDI0LjM0MzgyOCAmIzEwO0wgMjIuNzcgMjQuMzQzODI4ICYjMTA7TCAyMi43NyAtMCAmIzEwO0wgMCAtMCAmIzEwO3oiLz4mI3hhOyAgPC9nPiYjeGE7ICA8ZyBpZD0iYXhlc18xIj4mI3hhOyAgIDxnIGlkPSJwYXRjaF8yIj4mI3hhOyAgICA8cGF0aCBzdHlsZT0iZmlsbDogI2ZmZmZmZiIgZD0iTSA3LjIgMTYuMzI5OTE0ICYjMTA7TCAxNS41NyAxNi4zMjk5MTQgJiMxMDtMIDE1LjU3IDguMDEzOTE0ICYjMTA7TCA3LjIgOC4wMTM5MTQgJiMxMDt6Ii8+JiN4YTsgICA8L2c+JiN4YTsgICA8ZyBpZD0idGV4dF8xIj4mI3hhOyAgICAmI3hhOyAgICA8ZyB0cmFuc2Zvcm09InRyYW5zbGF0ZSg4LjE3NzU3OCAxNC44NTUxNTYpIHNjYWxlKDAuMTA1IC0wLjEwNSkiPiYjeGE7ICAgICA8ZGVmcz4mI3hhOyAgICAgIDxwYXRoIHRyYW5zZm9ybT0ic2NhbGUoMC4wMTU2MjUpIiBkPSJNIDM2ODAgMTY4MyAmIzEwO1EgMzY4MCA5MDkgMzI2NyA0MjUgJiMxMDtRIDI4NTQgLTU4IDIyMjcgLTU4ICYjMTA7USAxNjA2IC01OCAxMjc0IDM5NyAmIzEwO0wgMTI3NCAwICYjMTA7TCAzNzggMCAmIzEwO0wgMzc4IDQ2NjYgJiMxMDtMIDEyNzQgNDY2NiAmIzEwO0wgMTI3NCAzMDA4ICYjMTA7USAxNTk0IDM1MTQgMjIyNyAzNTE0ICYjMTA7USAyODg2IDM1MTQgMzI4MyAyOTc5ICYjMTA7USAzNjgwIDI0NDUgMzY4MCAxNjgzICYjMTA7eiYjMTA7TSAyNzg0IDE3MjIgJiMxMDtRIDI3ODQgMjE5NSAyNTczIDI0ODAgJiMxMDtRIDIzNjIgMjc2NSAyMDI5IDI3NjUgJiMxMDtRIDE2OTAgMjc2NSAxNDgyIDI0ODYgJiMxMDtRIDEyNzQgMjIwOCAxMjc0IDE3NDEgJiMxMDtRIDEyNzQgMTI1NCAxNDc4IDk3MiAmIzEwO1EgMTY4MyA2OTEgMjAyOSA2OTEgJiMxMDtRIDIzNjIgNjkxIDI1NzMgOTcyICYjMTA7USAyNzg0IDEyNTQgMjc4NCAxNzIyICYjMTA7eiIgaWQ9IlRlWEd5cmVIZXJvcy1Cb2xkLTYyIi8+JiN4YTsgICAgIDwvZGVmcz4mI3hhOyAgICAgPHVzZSB4bGluazpocmVmPSIjVGVYR3lyZUhlcm9zLUJvbGQtNjIiLz4mI3hhOyAgICA8L2c+JiN4YTsgICA8L2c+JiN4YTsgIDwvZz4mI3hhOyA8L2c+JiN4YTs8L3N2Zz4=;" vertex="1" parent="1">
          <mxGeometry x="80" y="388" width="38.33" height="40" as="geometry" />
        </mxCell>
        <mxCell id="2Dzqu9GaTqPY8HiB3y6L-36" value="" style="group;fontSize=10;" vertex="1" connectable="0" parent="1">
          <mxGeometry x="80" y="120" width="255.5" height="240" as="geometry" />
        </mxCell>
        <mxCell id="FGFcZLJbSWmF4mY8khO0-1" value="$$u_w$$" style="rounded=0;whiteSpace=wrap;html=1;shadow=0;glass=0;strokeColor=#000000;align=center;verticalAlign=middle;fontFamily=Helvetica;fontSize=10;fontColor=default;fillColor=default;" vertex="1" parent="2Dzqu9GaTqPY8HiB3y6L-36">
          <mxGeometry x="154.84848484848482" y="162.58064516129033" width="38.712121212121204" height="38.70967741935484" as="geometry" />
        </mxCell>
        <mxCell id="FGFcZLJbSWmF4mY8khO0-2" value="" style="rounded=1;whiteSpace=wrap;html=1;shadow=0;glass=0;align=center;verticalAlign=middle;fontFamily=Helvetica;fontSize=10;fillColor=#bac8d3;strokeColor=#000000;" vertex="1" parent="2Dzqu9GaTqPY8HiB3y6L-36">
          <mxGeometry y="154.83870967741936" width="255.49999999999994" height="85.16129032258065" as="geometry" />
        </mxCell>
        <mxCell id="FGFcZLJbSWmF4mY8khO0-3" value="$$C_{mineral}$$" style="ellipse;whiteSpace=wrap;html=1;rounded=1;shadow=0;glass=0;strokeColor=#000000;align=center;verticalAlign=middle;fontFamily=Helvetica;fontSize=10;fontColor=default;fillColor=#ededed;" vertex="1" parent="2Dzqu9GaTqPY8HiB3y6L-36">
          <mxGeometry x="81.29545454545452" y="166.45161290322582" width="92.90909090909089" height="61.935483870967744" as="geometry" />
        </mxCell>
        <mxCell id="FGFcZLJbSWmF4mY8khO0-4" value="" style="endArrow=block;html=1;rounded=1;fontFamily=Helvetica;fontSize=10;fontColor=default;exitX=1;exitY=1;exitDx=0;exitDy=0;endFill=1;strokeColor=#000000;" edge="1" parent="2Dzqu9GaTqPY8HiB3y6L-36" source="FGFcZLJbSWmF4mY8khO0-18">
          <mxGeometry width="50" height="50" relative="1" as="geometry">
            <mxPoint x="3.8712121212121198" y="116.1290322580645" as="sourcePoint" />
            <mxPoint x="46.454545454545446" y="61.935483870967744" as="targetPoint" />
            <Array as="points">
              <mxPoint x="46.454545454545446" y="46.451612903225815" />
            </Array>
          </mxGeometry>
        </mxCell>
        <mxCell id="FGFcZLJbSWmF4mY8khO0-6" value="" style="endArrow=block;html=1;rounded=1;fontFamily=Helvetica;fontSize=10;fontColor=default;exitX=0.5;exitY=1;exitDx=0;exitDy=0;entryX=0;entryY=0.5;entryDx=0;entryDy=0;endFill=1;strokeColor=#000000;" edge="1" parent="2Dzqu9GaTqPY8HiB3y6L-36" source="FGFcZLJbSWmF4mY8khO0-18" target="FGFcZLJbSWmF4mY8khO0-3">
          <mxGeometry width="50" height="50" relative="1" as="geometry">
            <mxPoint x="41.03484848484848" y="41.032258064516135" as="sourcePoint" />
            <mxPoint x="19.356060606060602" y="147.09677419354838" as="targetPoint" />
            <Array as="points">
              <mxPoint x="19.356060606060602" y="197.41935483870967" />
            </Array>
          </mxGeometry>
        </mxCell>
        <mxCell id="FGFcZLJbSWmF4mY8khO0-7" value="" style="endArrow=block;html=1;rounded=1;fontFamily=Helvetica;fontSize=10;fontColor=default;endFill=1;strokeColor=#000000;" edge="1" parent="2Dzqu9GaTqPY8HiB3y6L-36">
          <mxGeometry width="50" height="50" relative="1" as="geometry">
            <mxPoint x="49.55151515151514" y="100.64516129032259" as="sourcePoint" />
            <mxPoint x="92.13484848484846" y="177.29032258064518" as="targetPoint" />
            <Array as="points">
              <mxPoint x="49.55151515151514" y="138.58064516129033" />
            </Array>
          </mxGeometry>
        </mxCell>
        <mxCell id="FGFcZLJbSWmF4mY8khO0-8" value="" style="endArrow=block;html=1;rounded=1;fontFamily=Helvetica;fontSize=10;fontColor=default;entryX=0.325;entryY=0.052;entryDx=0;entryDy=0;entryPerimeter=0;endFill=1;strokeColor=#000000;" edge="1" parent="2Dzqu9GaTqPY8HiB3y6L-36">
          <mxGeometry width="50" height="50" relative="1" as="geometry">
            <mxPoint x="96.0060606060606" y="100.64516129032259" as="sourcePoint" />
            <mxPoint x="110.71666666666668" y="168.89806451612898" as="targetPoint" />
            <Array as="points">
              <mxPoint x="96.0060606060606" y="138.58064516129033" />
            </Array>
          </mxGeometry>
        </mxCell>
        <mxCell id="FGFcZLJbSWmF4mY8khO0-9" value="" style="endArrow=block;html=1;rounded=1;fontFamily=Helvetica;fontSize=10;fontColor=default;exitX=0.5;exitY=1;exitDx=0;exitDy=0;endFill=1;strokeColor=#000000;" edge="1" parent="2Dzqu9GaTqPY8HiB3y6L-36" source="FGFcZLJbSWmF4mY8khO0-16" target="FGFcZLJbSWmF4mY8khO0-3">
          <mxGeometry width="50" height="50" relative="1" as="geometry">
            <mxPoint x="104.52272727272722" y="108.38709677419354" as="sourcePoint" />
            <mxPoint x="116.91060606060603" y="177.29032258064518" as="targetPoint" />
            <Array as="points">
              <mxPoint x="143.23484848484844" y="139.35483870967744" />
            </Array>
          </mxGeometry>
        </mxCell>
        <mxCell id="FGFcZLJbSWmF4mY8khO0-10" value="" style="endArrow=block;html=1;rounded=1;fontFamily=Helvetica;fontSize=10;fontColor=default;exitX=0.5;exitY=1;exitDx=0;exitDy=0;entryX=1;entryY=0;entryDx=0;entryDy=0;endFill=1;strokeColor=#000000;" edge="1" parent="2Dzqu9GaTqPY8HiB3y6L-36" source="FGFcZLJbSWmF4mY8khO0-14" target="FGFcZLJbSWmF4mY8khO0-3">
          <mxGeometry width="50" height="50" relative="1" as="geometry">
            <mxPoint x="150.97727272727266" y="108.38709677419354" as="sourcePoint" />
            <mxPoint x="144.00909090909087" y="174.9677419354839" as="targetPoint" />
            <Array as="points">
              <mxPoint x="189.68939393939388" y="139.35483870967744" />
            </Array>
          </mxGeometry>
        </mxCell>
        <mxCell id="FGFcZLJbSWmF4mY8khO0-11" value="" style="endArrow=block;html=1;rounded=1;fontFamily=Helvetica;fontSize=10;fontColor=default;exitX=0.5;exitY=1;exitDx=0;exitDy=0;entryX=1;entryY=0.5;entryDx=0;entryDy=0;endFill=1;strokeColor=#000000;" edge="1" parent="2Dzqu9GaTqPY8HiB3y6L-36" source="FGFcZLJbSWmF4mY8khO0-15" target="FGFcZLJbSWmF4mY8khO0-3">
          <mxGeometry width="50" height="50" relative="1" as="geometry">
            <mxPoint x="197.43181818181813" y="108.38709677419354" as="sourcePoint" />
            <mxPoint x="162.59090909090904" y="179.61290322580646" as="targetPoint" />
            <Array as="points">
              <mxPoint x="236.14393939393932" y="197.41935483870967" />
            </Array>
          </mxGeometry>
        </mxCell>
        <mxCell id="FGFcZLJbSWmF4mY8khO0-12" value="T" style="text;html=1;strokeColor=none;fillColor=none;align=center;verticalAlign=middle;whiteSpace=wrap;rounded=0;fontSize=10;fontFamily=Helvetica;fontColor=default;" vertex="1" parent="2Dzqu9GaTqPY8HiB3y6L-36">
          <mxGeometry x="224.53030303030297" y="216.77419354838707" width="23.227272727272723" height="23.225806451612907" as="geometry" />
        </mxCell>
        <mxCell id="FGFcZLJbSWmF4mY8khO0-13" value="$$k$$" style="ellipse;whiteSpace=wrap;html=1;aspect=fixed;rounded=1;shadow=0;glass=0;align=center;verticalAlign=middle;fontFamily=Helvetica;fontSize=10;fillColor=#d5e8d4;strokeColor=#000000;" vertex="1" parent="2Dzqu9GaTqPY8HiB3y6L-36">
          <mxGeometry x="77.42424242424241" y="61.935483870967744" width="38.709090909090904" height="38.709090909090904" as="geometry" />
        </mxCell>
        <mxCell id="FGFcZLJbSWmF4mY8khO0-14" value="$$\log m$$" style="ellipse;whiteSpace=wrap;html=1;aspect=fixed;rounded=1;shadow=0;glass=0;align=center;verticalAlign=middle;fontFamily=Helvetica;fontSize=10;fillColor=#d5e8d4;strokeColor=#000000;" vertex="1" parent="2Dzqu9GaTqPY8HiB3y6L-36">
          <mxGeometry x="170.33333333333331" y="61.935483870967744" width="38.709090909090904" height="38.709090909090904" as="geometry" />
        </mxCell>
        <mxCell id="FGFcZLJbSWmF4mY8khO0-15" value="$$c_{inter}$$" style="ellipse;whiteSpace=wrap;html=1;aspect=fixed;rounded=1;shadow=0;glass=0;align=center;verticalAlign=middle;fontFamily=Helvetica;fontSize=10;fillColor=#d5e8d4;strokeColor=#000000;" vertex="1" parent="2Dzqu9GaTqPY8HiB3y6L-36">
          <mxGeometry x="216.78787878787875" y="61.935483870967744" width="38.709090909090904" height="38.709090909090904" as="geometry" />
        </mxCell>
        <mxCell id="FGFcZLJbSWmF4mY8khO0-16" value="$$k_{inter}$$" style="ellipse;whiteSpace=wrap;html=1;aspect=fixed;rounded=1;shadow=0;glass=0;align=center;verticalAlign=middle;fontFamily=Helvetica;fontSize=10;fillColor=#d5e8d4;strokeColor=#000000;" vertex="1" parent="2Dzqu9GaTqPY8HiB3y6L-36">
          <mxGeometry x="123.87878787878783" y="61.935483870967744" width="38.709090909090904" height="38.709090909090904" as="geometry" />
        </mxCell>
        <mxCell id="FGFcZLJbSWmF4mY8khO0-17" value="&lt;font style=&quot;font-size: 10px;&quot;&gt;$$s$$&lt;/font&gt;" style="ellipse;whiteSpace=wrap;html=1;aspect=fixed;rounded=1;shadow=0;glass=0;align=center;verticalAlign=middle;fontFamily=Helvetica;fontSize=10;fillColor=#d5e8d4;strokeColor=#000000;" vertex="1" parent="2Dzqu9GaTqPY8HiB3y6L-36">
          <mxGeometry x="61.939393939393916" width="38.709090909090904" height="38.709090909090904" as="geometry" />
        </mxCell>
        <mxCell id="FGFcZLJbSWmF4mY8khO0-18" value="&lt;font style=&quot;font-size: 10px;&quot;&gt;$$u_n$$&lt;/font&gt;" style="ellipse;whiteSpace=wrap;html=1;aspect=fixed;rounded=1;shadow=0;glass=0;align=center;verticalAlign=middle;fontFamily=Helvetica;fontSize=10;fillColor=#d5e8d4;strokeColor=#000000;" vertex="1" parent="2Dzqu9GaTqPY8HiB3y6L-36">
          <mxGeometry width="38.709090909090904" height="38.709090909090904" as="geometry" />
        </mxCell>
        <mxCell id="FGFcZLJbSWmF4mY8khO0-19" value="&lt;font style=&quot;font-size: 10px;&quot;&gt;$$u_w$$&lt;/font&gt;" style="rounded=0;whiteSpace=wrap;html=1;shadow=0;glass=0;align=center;verticalAlign=middle;fontFamily=Helvetica;fontSize=10;fillColor=#fff2cc;strokeColor=#000000;" vertex="1" parent="2Dzqu9GaTqPY8HiB3y6L-36">
          <mxGeometry x="30.969696969696958" y="61.935483870967744" width="38.712121212121204" height="38.70967741935484" as="geometry" />
        </mxCell>
        <mxCell id="FGFcZLJbSWmF4mY8khO0-5" value="" style="endArrow=block;html=1;rounded=1;fontFamily=Helvetica;fontSize=10;fontColor=default;exitX=0;exitY=1;exitDx=0;exitDy=0;entryX=0.598;entryY=-0.003;entryDx=0;entryDy=0;endFill=1;entryPerimeter=0;strokeColor=#000000;" edge="1" parent="2Dzqu9GaTqPY8HiB3y6L-36" source="FGFcZLJbSWmF4mY8khO0-17" target="FGFcZLJbSWmF4mY8khO0-19">
          <mxGeometry width="50" height="50" relative="1" as="geometry">
            <mxPoint x="41.03484848484848" y="41.032258064516135" as="sourcePoint" />
            <mxPoint x="69.68181818181817" y="69.67741935483872" as="targetPoint" />
            <Array as="points">
              <mxPoint x="54.19696969696969" y="46.451612903225815" />
            </Array>
          </mxGeometry>
        </mxCell>
        <mxCell id="2Dzqu9GaTqPY8HiB3y6L-37" value="" style="group;fontSize=10;" vertex="1" connectable="0" parent="1">
          <mxGeometry x="79" y="428" width="415.48" height="230" as="geometry" />
        </mxCell>
        <mxCell id="2Dzqu9GaTqPY8HiB3y6L-1" value="$$k$$" style="ellipse;whiteSpace=wrap;html=1;aspect=fixed;rounded=1;shadow=0;glass=0;strokeColor=#000000;align=center;verticalAlign=middle;fontFamily=Helvetica;fontSize=10;fillColor=#d5e8d4;" vertex="1" parent="2Dzqu9GaTqPY8HiB3y6L-37">
          <mxGeometry x="244.83642857142854" y="59.35483870967741" width="37.09604256445093" height="37.09604256445093" as="geometry" />
        </mxCell>
        <mxCell id="2Dzqu9GaTqPY8HiB3y6L-2" value="$$\log m$$" style="ellipse;whiteSpace=wrap;html=1;aspect=fixed;rounded=1;shadow=0;glass=0;strokeColor=#000000;align=center;verticalAlign=middle;fontFamily=Helvetica;fontSize=10;fillColor=#d5e8d4;" vertex="1" parent="2Dzqu9GaTqPY8HiB3y6L-37">
          <mxGeometry x="333.8678571428571" y="59.35483870967741" width="37.09604256445093" height="37.09604256445093" as="geometry" />
        </mxCell>
        <mxCell id="2Dzqu9GaTqPY8HiB3y6L-3" value="$$c_{inter}$$" style="ellipse;whiteSpace=wrap;html=1;aspect=fixed;rounded=1;shadow=0;glass=0;strokeColor=#000000;align=center;verticalAlign=middle;fontFamily=Helvetica;fontSize=10;fillColor=#d5e8d4;" vertex="1" parent="2Dzqu9GaTqPY8HiB3y6L-37">
          <mxGeometry x="378.3835714285714" y="59.35483870967741" width="37.09604256445093" height="37.09604256445093" as="geometry" />
        </mxCell>
        <mxCell id="2Dzqu9GaTqPY8HiB3y6L-4" value="$$k_{inter}$$" style="ellipse;whiteSpace=wrap;html=1;aspect=fixed;rounded=1;shadow=0;glass=0;strokeColor=#000000;align=center;verticalAlign=middle;fontFamily=Helvetica;fontSize=10;fillColor=#d5e8d4;" vertex="1" parent="2Dzqu9GaTqPY8HiB3y6L-37">
          <mxGeometry x="289.35214285714284" y="59.35483870967741" width="37.09604256445093" height="37.09604256445093" as="geometry" />
        </mxCell>
        <mxCell id="2Dzqu9GaTqPY8HiB3y6L-5" value="$$u_w$$" style="rounded=0;whiteSpace=wrap;html=1;shadow=0;glass=0;strokeColor=#000000;align=center;verticalAlign=middle;fontFamily=Helvetica;fontSize=10;fontColor=default;fillColor=default;" vertex="1" parent="2Dzqu9GaTqPY8HiB3y6L-37">
          <mxGeometry x="319.02928571428566" y="155.8064516129032" width="37.09642857142857" height="37.09677419354838" as="geometry" />
        </mxCell>
        <mxCell id="2Dzqu9GaTqPY8HiB3y6L-6" value="" style="rounded=1;whiteSpace=wrap;html=1;shadow=0;glass=0;strokeColor=#000000;align=center;verticalAlign=middle;fontFamily=Helvetica;fontSize=10;fillColor=#bac8d3;" vertex="1" parent="2Dzqu9GaTqPY8HiB3y6L-37">
          <mxGeometry x="170.64357142857142" y="148.3870967741935" width="244.83642857142854" height="81.61290322580645" as="geometry" />
        </mxCell>
        <mxCell id="2Dzqu9GaTqPY8HiB3y6L-7" value="$$C_{mineral}$$" style="ellipse;whiteSpace=wrap;html=1;rounded=1;shadow=0;glass=0;strokeColor=#000000;align=center;verticalAlign=middle;fontFamily=Helvetica;fontSize=10;fontColor=default;fillColor=#ededed;" vertex="1" parent="2Dzqu9GaTqPY8HiB3y6L-37">
          <mxGeometry x="248.54607142857142" y="159.51612903225805" width="89.03142857142855" height="59.35483870967741" as="geometry" />
        </mxCell>
        <mxCell id="2Dzqu9GaTqPY8HiB3y6L-8" value="" style="endArrow=block;html=1;rounded=1;fontFamily=Helvetica;fontSize=10;fontColor=default;entryX=0;entryY=0.5;entryDx=0;entryDy=0;endFill=1;exitX=0.5;exitY=1;exitDx=0;exitDy=0;strokeColor=#000000;" edge="1" parent="2Dzqu9GaTqPY8HiB3y6L-37" source="2Dzqu9GaTqPY8HiB3y6L-33" target="2Dzqu9GaTqPY8HiB3y6L-7">
          <mxGeometry width="50" height="50" relative="1" as="geometry">
            <mxPoint x="189.1917857142857" y="59.35483870967741" as="sourcePoint" />
            <mxPoint x="189.1917857142857" y="140.96774193548384" as="targetPoint" />
            <Array as="points">
              <mxPoint x="189.1917857142857" y="189.19354838709674" />
            </Array>
          </mxGeometry>
        </mxCell>
        <mxCell id="2Dzqu9GaTqPY8HiB3y6L-9" value="" style="endArrow=block;html=1;rounded=1;fontFamily=Helvetica;fontSize=10;fontColor=default;exitX=0.5;exitY=1;exitDx=0;exitDy=0;endFill=1;strokeColor=#000000;" edge="1" parent="2Dzqu9GaTqPY8HiB3y6L-37">
          <mxGeometry width="50" height="50" relative="1" as="geometry">
            <mxPoint x="218.12699999999998" y="95.70967741935482" as="sourcePoint" />
            <mxPoint x="258.9330714285714" y="169.9032258064516" as="targetPoint" />
            <Array as="points">
              <mxPoint x="218.12699999999998" y="132.8064516129032" />
            </Array>
          </mxGeometry>
        </mxCell>
        <mxCell id="2Dzqu9GaTqPY8HiB3y6L-10" value="$$u_w$$" style="rounded=0;whiteSpace=wrap;html=1;shadow=0;glass=0;strokeColor=#000000;align=center;verticalAlign=middle;fontFamily=Helvetica;fontSize=10;fillColor=#fff2cc;" vertex="1" parent="2Dzqu9GaTqPY8HiB3y6L-37">
          <mxGeometry x="200.32071428571425" y="59.35483870967741" width="37.09642857142857" height="37.09677419354838" as="geometry" />
        </mxCell>
        <mxCell id="2Dzqu9GaTqPY8HiB3y6L-11" value="" style="endArrow=block;html=1;rounded=1;fontFamily=Helvetica;fontSize=10;fontColor=default;exitX=0.5;exitY=1;exitDx=0;exitDy=0;entryX=0.325;entryY=0.052;entryDx=0;entryDy=0;entryPerimeter=0;endFill=1;strokeColor=#000000;" edge="1" parent="2Dzqu9GaTqPY8HiB3y6L-37" source="2Dzqu9GaTqPY8HiB3y6L-1">
          <mxGeometry width="50" height="50" relative="1" as="geometry">
            <mxPoint x="263.38464285714275" y="94.84903225806444" as="sourcePoint" />
            <mxPoint x="277.48128571428566" y="161" as="targetPoint" />
            <Array as="points">
              <mxPoint x="263.38464285714275" y="131.94580645161284" />
            </Array>
          </mxGeometry>
        </mxCell>
        <mxCell id="2Dzqu9GaTqPY8HiB3y6L-12" value="" style="endArrow=block;html=1;rounded=1;fontFamily=Helvetica;fontSize=10;fontColor=default;exitX=0.5;exitY=1;exitDx=0;exitDy=0;endFill=1;strokeColor=#000000;" edge="1" parent="2Dzqu9GaTqPY8HiB3y6L-37" source="2Dzqu9GaTqPY8HiB3y6L-4">
          <mxGeometry width="50" height="50" relative="1" as="geometry">
            <mxPoint x="307.9003571428571" y="95.9916129032258" as="sourcePoint" />
            <mxPoint x="300.855139047007" y="159.51446591539815" as="targetPoint" />
            <Array as="points">
              <mxPoint x="307.9003571428571" y="133.08838709677417" />
            </Array>
          </mxGeometry>
        </mxCell>
        <mxCell id="2Dzqu9GaTqPY8HiB3y6L-13" value="" style="endArrow=block;html=1;rounded=1;fontFamily=Helvetica;fontSize=10;fontColor=default;exitX=0.5;exitY=1;exitDx=0;exitDy=0;entryX=1;entryY=0;entryDx=0;entryDy=0;endFill=1;strokeColor=#000000;" edge="1" parent="2Dzqu9GaTqPY8HiB3y6L-37" source="2Dzqu9GaTqPY8HiB3y6L-2" target="2Dzqu9GaTqPY8HiB3y6L-7">
          <mxGeometry width="50" height="50" relative="1" as="geometry">
            <mxPoint x="315.31964285714275" y="103.87096774193547" as="sourcePoint" />
            <mxPoint x="308.64228571428566" y="167.6774193548387" as="targetPoint" />
            <Array as="points">
              <mxPoint x="352.4160714285714" y="133.54838709677418" />
            </Array>
          </mxGeometry>
        </mxCell>
        <mxCell id="2Dzqu9GaTqPY8HiB3y6L-14" value="" style="endArrow=block;html=1;rounded=1;fontFamily=Helvetica;fontSize=10;fontColor=default;exitX=0.5;exitY=1;exitDx=0;exitDy=0;entryX=1;entryY=0.5;entryDx=0;entryDy=0;endFill=1;strokeColor=#000000;" edge="1" parent="2Dzqu9GaTqPY8HiB3y6L-37" source="2Dzqu9GaTqPY8HiB3y6L-3" target="2Dzqu9GaTqPY8HiB3y6L-7">
          <mxGeometry width="50" height="50" relative="1" as="geometry">
            <mxPoint x="359.8353571428571" y="103.87096774193547" as="sourcePoint" />
            <mxPoint x="326.44857142857137" y="172.1290322580645" as="targetPoint" />
            <Array as="points">
              <mxPoint x="396.93178571428564" y="189.19354838709674" />
            </Array>
          </mxGeometry>
        </mxCell>
        <mxCell id="2Dzqu9GaTqPY8HiB3y6L-15" value="T&lt;sub style=&quot;font-size: 10px;&quot;&gt;1&lt;/sub&gt;" style="text;html=1;strokeColor=none;fillColor=none;align=center;verticalAlign=middle;whiteSpace=wrap;rounded=0;fontSize=10;fontFamily=Helvetica;fontColor=default;" vertex="1" parent="2Dzqu9GaTqPY8HiB3y6L-37">
          <mxGeometry x="385.8028571428571" y="207.74193548387095" width="22.257857142857137" height="22.25806451612903" as="geometry" />
        </mxCell>
        <mxCell id="2Dzqu9GaTqPY8HiB3y6L-16" value="" style="rounded=1;whiteSpace=wrap;html=1;shadow=0;glass=0;align=center;verticalAlign=middle;fontFamily=Helvetica;fontSize=10;fillColor=#bac8d3;strokeColor=#000000;" vertex="1" parent="2Dzqu9GaTqPY8HiB3y6L-37">
          <mxGeometry y="148.3870967741935" width="163.22428571428568" height="81.61290322580645" as="geometry" />
        </mxCell>
        <mxCell id="2Dzqu9GaTqPY8HiB3y6L-17" value="$$M_w$$" style="ellipse;whiteSpace=wrap;html=1;rounded=1;shadow=0;glass=0;strokeColor=#000000;align=center;verticalAlign=middle;fontFamily=Helvetica;fontSize=10;fontColor=default;fillColor=#ededed;" vertex="1" parent="2Dzqu9GaTqPY8HiB3y6L-37">
          <mxGeometry x="37.09642857142857" y="159.51612903225805" width="89.03142857142855" height="59.35483870967741" as="geometry" />
        </mxCell>
        <mxCell id="2Dzqu9GaTqPY8HiB3y6L-18" value="T&lt;sub style=&quot;font-size: 10px;&quot;&gt;2&lt;/sub&gt;" style="text;html=1;strokeColor=none;fillColor=none;align=center;verticalAlign=middle;whiteSpace=wrap;rounded=0;fontSize=10;fontFamily=Helvetica;fontColor=default;" vertex="1" parent="2Dzqu9GaTqPY8HiB3y6L-37">
          <mxGeometry x="133.54714285714286" y="207.74193548387095" width="22.257857142857137" height="22.25806451612903" as="geometry" />
        </mxCell>
        <mxCell id="2Dzqu9GaTqPY8HiB3y6L-20" value="" style="endArrow=block;html=1;rounded=1;fontFamily=Helvetica;fontSize=10;fontColor=default;endFill=1;exitX=1;exitY=0.5;exitDx=0;exitDy=0;entryX=0;entryY=0.5;entryDx=0;entryDy=0;strokeColor=#000000;dashed=1;shadow=0;" edge="1" parent="2Dzqu9GaTqPY8HiB3y6L-37" source="2Dzqu9GaTqPY8HiB3y6L-30" target="2Dzqu9GaTqPY8HiB3y6L-10">
          <mxGeometry width="50" height="50" relative="1" as="geometry">
            <mxPoint x="111.28928571428571" y="95.9396774193548" as="sourcePoint" />
            <mxPoint x="185.48214285714283" y="95.9396774193548" as="targetPoint" />
            <Array as="points" />
          </mxGeometry>
        </mxCell>
        <mxCell id="2Dzqu9GaTqPY8HiB3y6L-22" value="" style="endArrow=block;html=1;rounded=1;fontFamily=Helvetica;fontSize=10;fontColor=default;endFill=1;exitX=1;exitY=1;exitDx=0;exitDy=0;entryX=-0.007;entryY=0.208;entryDx=0;entryDy=0;entryPerimeter=0;strokeColor=#000000;dashed=1;" edge="1" parent="2Dzqu9GaTqPY8HiB3y6L-37" source="2Dzqu9GaTqPY8HiB3y6L-31" target="2Dzqu9GaTqPY8HiB3y6L-10">
          <mxGeometry width="50" height="50" relative="1" as="geometry">
            <mxPoint x="103.86999999999998" y="85.32258064516128" as="sourcePoint" />
            <mxPoint x="207.73999999999995" y="85.32258064516128" as="targetPoint" />
            <Array as="points">
              <mxPoint x="148.38571428571427" y="66.77419354838709" />
              <mxPoint x="155.80499999999995" y="66.77419354838709" />
            </Array>
          </mxGeometry>
        </mxCell>
        <mxCell id="2Dzqu9GaTqPY8HiB3y6L-25" value="" style="endArrow=block;html=1;rounded=1;fontFamily=Helvetica;fontSize=10;fontColor=default;endFill=1;exitX=0.5;exitY=1;exitDx=0;exitDy=0;strokeColor=#000000;" edge="1" parent="2Dzqu9GaTqPY8HiB3y6L-37" source="2Dzqu9GaTqPY8HiB3y6L-29" target="2Dzqu9GaTqPY8HiB3y6L-17">
          <mxGeometry width="50" height="50" relative="1" as="geometry">
            <mxPoint x="103.86999999999998" y="25.96774193548387" as="sourcePoint" />
            <mxPoint x="178.0628571428571" y="25.96774193548387" as="targetPoint" />
            <Array as="points" />
          </mxGeometry>
        </mxCell>
        <mxCell id="2Dzqu9GaTqPY8HiB3y6L-26" value="" style="endArrow=block;html=1;rounded=1;fontFamily=Helvetica;fontSize=10;fontColor=default;endFill=1;exitX=0.5;exitY=1;exitDx=0;exitDy=0;entryX=0.316;entryY=0.036;entryDx=0;entryDy=0;entryPerimeter=0;strokeColor=#000000;" edge="1" parent="2Dzqu9GaTqPY8HiB3y6L-37" source="2Dzqu9GaTqPY8HiB3y6L-30" target="2Dzqu9GaTqPY8HiB3y6L-17">
          <mxGeometry width="50" height="50" relative="1" as="geometry">
            <mxPoint x="44.515714285714274" y="103.87096774193547" as="sourcePoint" />
            <mxPoint x="44.515714285714274" y="126.1290322580645" as="targetPoint" />
            <Array as="points">
              <mxPoint x="33.386785714285715" y="133.54838709677418" />
            </Array>
          </mxGeometry>
        </mxCell>
        <mxCell id="2Dzqu9GaTqPY8HiB3y6L-27" value="" style="endArrow=block;html=1;rounded=1;fontFamily=Helvetica;fontSize=10;fontColor=default;endFill=1;exitX=0.5;exitY=1;exitDx=0;exitDy=0;entryX=0.672;entryY=0.026;entryDx=0;entryDy=0;entryPerimeter=0;strokeColor=#000000;" edge="1" parent="2Dzqu9GaTqPY8HiB3y6L-37" source="2Dzqu9GaTqPY8HiB3y6L-32" target="2Dzqu9GaTqPY8HiB3y6L-17">
          <mxGeometry width="50" height="50" relative="1" as="geometry">
            <mxPoint x="40.80607142857142" y="103.87096774193547" as="sourcePoint" />
            <mxPoint x="72.70899999999999" y="169.1612903225806" as="targetPoint" />
            <Array as="points">
              <mxPoint x="129.83749999999998" y="133.54838709677418" />
            </Array>
          </mxGeometry>
        </mxCell>
        <mxCell id="2Dzqu9GaTqPY8HiB3y6L-28" value="$$s$$" style="ellipse;whiteSpace=wrap;html=1;aspect=fixed;rounded=1;shadow=0;glass=0;strokeColor=#000000;align=center;verticalAlign=middle;fontFamily=Helvetica;fontSize=10;fillColor=#d5e8d4;" vertex="1" parent="2Dzqu9GaTqPY8HiB3y6L-37">
          <mxGeometry x="14.838571428571425" width="37.09604256445093" height="37.09604256445093" as="geometry" />
        </mxCell>
        <mxCell id="2Dzqu9GaTqPY8HiB3y6L-29" value="$$u_n&#39;$$" style="ellipse;whiteSpace=wrap;html=1;aspect=fixed;rounded=1;shadow=0;glass=0;strokeColor=#000000;align=center;verticalAlign=middle;fontFamily=Helvetica;fontSize=10;fillColor=#d5e8d4;" vertex="1" parent="2Dzqu9GaTqPY8HiB3y6L-37">
          <mxGeometry x="62.321999999999996" width="37.09604256445093" height="37.09604256445093" as="geometry" />
        </mxCell>
        <mxCell id="2Dzqu9GaTqPY8HiB3y6L-30" value="$$u_w&#39;$$" style="rounded=0;whiteSpace=wrap;html=1;shadow=0;glass=0;strokeColor=#000000;align=center;verticalAlign=middle;fontFamily=Helvetica;fontSize=10;fillColor=#fff2cc;" vertex="1" parent="2Dzqu9GaTqPY8HiB3y6L-37">
          <mxGeometry x="14.838571428571425" y="59.35483870967741" width="37.09642857142857" height="37.09677419354838" as="geometry" />
        </mxCell>
        <mxCell id="2Dzqu9GaTqPY8HiB3y6L-24" value="" style="endArrow=block;html=1;rounded=1;fontFamily=Helvetica;fontSize=10;fontColor=default;endFill=1;exitX=0.5;exitY=1;exitDx=0;exitDy=0;entryX=0.5;entryY=0;entryDx=0;entryDy=0;strokeColor=#000000;" edge="1" parent="2Dzqu9GaTqPY8HiB3y6L-37" source="2Dzqu9GaTqPY8HiB3y6L-28" target="2Dzqu9GaTqPY8HiB3y6L-30">
          <mxGeometry width="50" height="50" relative="1" as="geometry">
            <mxPoint x="85.32178571428571" y="44.51612903225806" as="sourcePoint" />
            <mxPoint x="85.32178571428571" y="66.77419354838709" as="targetPoint" />
            <Array as="points" />
          </mxGeometry>
        </mxCell>
        <mxCell id="2Dzqu9GaTqPY8HiB3y6L-23" value="" style="endArrow=block;html=1;rounded=1;fontFamily=Helvetica;fontSize=10;fontColor=default;endFill=1;exitX=0;exitY=1;exitDx=0;exitDy=0;entryX=0.75;entryY=0;entryDx=0;entryDy=0;strokeColor=#000000;" edge="1" parent="2Dzqu9GaTqPY8HiB3y6L-37" source="2Dzqu9GaTqPY8HiB3y6L-29" target="2Dzqu9GaTqPY8HiB3y6L-30">
          <mxGeometry width="50" height="50" relative="1" as="geometry">
            <mxPoint x="103.86999999999998" y="25.96774193548387" as="sourcePoint" />
            <mxPoint x="178.0628571428571" y="25.96774193548387" as="targetPoint" />
            <Array as="points">
              <mxPoint x="43.031857142857135" y="44.51612903225806" />
            </Array>
          </mxGeometry>
        </mxCell>
        <mxCell id="2Dzqu9GaTqPY8HiB3y6L-31" value="$$w$$" style="ellipse;whiteSpace=wrap;html=1;aspect=fixed;rounded=1;shadow=0;glass=0;strokeColor=#000000;align=center;verticalAlign=middle;fontFamily=Helvetica;fontSize=10;fillColor=#d5e8d4;" vertex="1" parent="2Dzqu9GaTqPY8HiB3y6L-37">
          <mxGeometry x="111.28928571428571" y="29.677419354838705" width="37.09604256445093" height="37.09604256445093" as="geometry" />
        </mxCell>
        <mxCell id="2Dzqu9GaTqPY8HiB3y6L-32" value="$$M_{w,0}$$" style="ellipse;whiteSpace=wrap;html=1;aspect=fixed;rounded=1;shadow=0;glass=0;strokeColor=#000000;align=center;verticalAlign=middle;fontFamily=Helvetica;fontSize=10;fillColor=#d5e8d4;" vertex="1" parent="2Dzqu9GaTqPY8HiB3y6L-37">
          <mxGeometry x="111.28928571428571" y="85.32258064516128" width="37.09604256445093" height="37.09604256445093" as="geometry" />
        </mxCell>
        <mxCell id="2Dzqu9GaTqPY8HiB3y6L-33" value="$$u_n$$" style="rounded=0;whiteSpace=wrap;html=1;shadow=0;glass=0;strokeColor=#000000;align=center;verticalAlign=middle;fontFamily=Helvetica;fontSize=10;fillColor=#fff2cc;" vertex="1" parent="2Dzqu9GaTqPY8HiB3y6L-37">
          <mxGeometry x="170.64357142857142" width="37.09642857142857" height="37.09677419354838" as="geometry" />
        </mxCell>
        <mxCell id="2Dzqu9GaTqPY8HiB3y6L-19" value="" style="endArrow=block;html=1;rounded=1;fontFamily=Helvetica;fontSize=10;fontColor=default;endFill=1;exitX=1;exitY=0.5;exitDx=0;exitDy=0;entryX=0;entryY=0.5;entryDx=0;entryDy=0;strokeColor=#000000;" edge="1" parent="2Dzqu9GaTqPY8HiB3y6L-37" source="2Dzqu9GaTqPY8HiB3y6L-29" target="2Dzqu9GaTqPY8HiB3y6L-33">
          <mxGeometry width="50" height="50" relative="1" as="geometry">
            <mxPoint x="307.6481014285714" y="-96.45161290322581" as="sourcePoint" />
            <mxPoint x="307.6481014285714" y="66.77419354838709" as="targetPoint" />
            <Array as="points" />
          </mxGeometry>
        </mxCell>
        <mxCell id="2Dzqu9GaTqPY8HiB3y6L-21" value="" style="endArrow=block;html=1;rounded=1;fontFamily=Helvetica;fontSize=10;fontColor=default;endFill=1;exitX=1;exitY=0;exitDx=0;exitDy=0;entryX=-0.004;entryY=0.803;entryDx=0;entryDy=0;entryPerimeter=0;strokeColor=#000000;" edge="1" parent="2Dzqu9GaTqPY8HiB3y6L-37" source="2Dzqu9GaTqPY8HiB3y6L-31" target="2Dzqu9GaTqPY8HiB3y6L-33">
          <mxGeometry width="50" height="50" relative="1" as="geometry">
            <mxPoint x="103.86999999999998" y="85.32258064516128" as="sourcePoint" />
            <mxPoint x="168.41778571428569" y="22.25806451612903" as="targetPoint" />
            <Array as="points">
              <mxPoint x="148.38571428571427" y="29.677419354838705" />
              <mxPoint x="155.80499999999995" y="29.677419354838705" />
            </Array>
          </mxGeometry>
        </mxCell>
      </root>
    </mxGraphModel>
  </diagram>
</mxfile>
